<svg xmlns="http://www.w3.org/2000/svg" id="contour-svg" width="1200" height="900" viewBox="0 0 1200 900" role="img" aria-label="Tree contour debug plot">
    <polyline points="553.09,557.96 514.85,565.35 488.18,586.88 466.65,610.66 471.47,649.22 457.01,675.56 483.68,699.66 500.39,730.83 507.46,759.43 538.63,749.79 562.73,747.54 586.50,723.44 622.49,718.62 644.34,694.84 641.77,661.11 622.49,632.51 605.78,601.34 574.62,584.31 553.09,557.96" fill="none" stroke="#f71313" stroke-opacity="1.000" stroke-width="1.2" stroke-linejoin="round"/><polyline points="567.55,531.61 524.17,534.18 493.00,550.89 452.19,548.32 416.21,557.96 413.96,593.95 397.25,625.12 411.71,658.86 406.89,697.09 418.78,733.08 445.13,754.61 471.47,773.89 490.75,802.81 521.92,819.51 560.16,814.69 577.19,783.53 586.50,752.36 600.96,721.19 634.70,713.80 651.41,682.63 668.12,651.47 685.15,620.30 680.33,577.24 646.59,565.35 610.60,555.71 582.01,538.68" fill="none" stroke="#f74913" stroke-opacity="0.968" stroke-width="1.2" stroke-linejoin="round"/><polyline points="553.09,557.96 514.85,565.35 488.18,586.88 466.65,610.66 471.47,649.22 457.01,675.56 483.68,699.66 500.39,730.83 507.46,759.43 538.63,749.79 562.73,747.54 586.50,723.44 622.49,718.62 644.34,694.84 641.77,661.11 622.49,632.51 605.78,601.34 574.62,584.31 553.09,557.96" fill="none" stroke="#f74913" stroke-opacity="0.968" stroke-width="1.2" stroke-linejoin="round"/><polyline points="574.62,485.99 543.45,500.45 502.64,495.63 474.04,514.91 440.31,531.61 416.21,555.71 399.50,584.31 392.43,615.48 404.32,651.47 397.25,687.45 406.89,721.19 409.14,766.82 413.96,802.81 445.13,819.51 478.86,829.15 512.28,824.33 550.84,826.58 582.01,807.30 603.53,780.96 596.14,742.72 615.42,721.19 644.34,701.91 661.05,670.74 682.58,644.40 704.11,620.30 718.57,586.88 704.11,553.14 680.33,531.61 651.41,512.34 613.17,505.27 582.01,490.81" fill="none" stroke="#f77e13" stroke-opacity="0.935" stroke-width="1.2" stroke-linejoin="round"/><polyline points="567.55,531.61 524.17,534.18 493.00,550.89 452.19,548.32 416.21,557.96 413.96,593.95 397.25,625.12 411.71,658.86 406.89,697.09 418.78,733.08 445.13,754.61 471.47,773.89 490.75,802.81 521.92,819.51 560.16,814.69 577.19,783.53 586.50,752.36 600.96,721.19 634.70,713.80 651.41,682.63 668.12,651.47 685.15,620.30 680.33,577.24 646.59,565.35 610.60,555.71 582.01,538.68" fill="none" stroke="#f77e13" stroke-opacity="0.935" stroke-width="1.2" stroke-linejoin="round"/><polyline points="517.10,445.18 485.93,459.64 452.19,471.53 423.60,493.38 428.42,524.55 411.71,555.71 392.43,586.88 389.86,618.05 403.03,654.04 392.43,685.20 404.32,718.62 389.86,752.36 394.68,788.35 421.03,807.95 442.88,833.97 474.04,850.68 497.82,838.79 531.56,822.08 567.55,820.80 592.29,797.99 605.78,766.82 601.93,730.83 634.70,718.62 651.41,690.02 668.12,656.29 697.04,637.01 712.46,605.84 720.82,567.60 699.29,541.25 680.33,514.91 644.34,500.45 605.78,493.38 567.55,483.74 538.63,462.21" fill="none" stroke="#f7b413" stroke-opacity="0.903" stroke-width="1.2" stroke-linejoin="round"/><polyline points="574.62,485.99 543.45,500.45 502.64,495.63 474.04,514.91 440.31,531.61 416.21,555.71 399.50,584.31 392.43,615.48 404.32,651.47 397.25,687.45 406.89,721.19 409.14,766.82 413.96,802.81 445.13,819.51 478.86,829.15 512.28,824.33 550.84,826.58 582.01,807.30 603.53,780.96 596.14,742.72 615.42,721.19 644.34,701.91 661.05,670.74 682.58,644.40 704.11,620.30 718.57,586.88 704.11,553.14 680.33,531.61 651.41,512.34 613.17,505.27 582.01,490.81" fill="none" stroke="#f7b413" stroke-opacity="0.903" stroke-width="1.2" stroke-linejoin="round"/><polyline points="617.99,42.25 589.08,56.71 588.75,94.95 562.73,114.22 526.42,123.86 537.99,159.85 560.16,186.20 567.55,224.76 589.72,251.11 620.24,253.35 641.77,277.45 619.60,303.80 617.99,349.43 609.32,390.24 572.37,395.05 533.81,387.66 514.85,414.01 488.18,438.11 464.40,461.89 438.06,483.74 406.89,500.45 370.90,502.70 363.51,536.43 349.05,572.42 325.27,589.13 322.70,615.48 353.87,622.87 387.61,622.87 394.68,658.86 382.79,694.84 356.44,716.37 346.80,754.61 373.15,776.14 400.78,795.42 428.10,816.94 454.76,838.79 483.68,856.47 507.46,831.40 546.02,824.33 574.62,814.69 598.71,788.35 600.96,755.89 607.07,721.19 639.52,711.55 657.84,680.38 675.51,651.47 701.86,627.69 718.57,597.48 716.32,559.25 697.68,529.37 670.69,507.52 636.95,495.63 605.78,476.35 634.70,464.46 672.94,475.38 713.75,482.45 747.48,477.95 778.65,459.64 790.54,433.29 802.43,403.41 819.46,373.21 842.59,346.86 873.12,330.15 872.80,291.91 891.11,265.24 858.02,248.53 861.23,207.73 831.35,191.02 812.07,159.85 783.47,140.57 764.19,114.22 735.27,99.76 697.04,92.70 685.15,61.53 646.59,54.46" fill="none" stroke="#f7e913" stroke-opacity="0.871" stroke-width="1.2" stroke-linejoin="round"/><polyline points="517.10,445.18 485.93,459.64 452.19,471.53 423.60,493.38 428.42,524.55 411.71,555.71 392.43,586.88 389.86,618.05 403.03,654.04 392.43,685.20 404.32,718.62 389.86,752.36 394.68,788.35 421.03,807.95 442.88,833.97 474.04,850.68 497.82,838.79 531.56,822.08 567.55,820.80 592.29,797.99 605.78,766.82 601.93,730.83 634.70,718.62 651.41,690.02 668.12,656.29 697.04,637.01 712.46,605.84 720.82,567.60 699.29,541.25 680.33,514.91 644.34,500.45 605.78,493.38 567.55,483.74 538.63,462.21" fill="none" stroke="#f7e913" stroke-opacity="0.871" stroke-width="1.2" stroke-linejoin="round"/><polyline points="610.60,40.00 586.50,60.89 588.75,99.76 557.91,112.94 526.42,128.68 539.59,162.42 548.27,202.91 562.73,234.08 593.89,253.35 629.88,254.96 634.70,281.95 619.60,313.44 617.35,359.07 591.32,375.78 557.91,368.39 519.35,378.03 502.64,406.94 483.68,438.11 461.83,462.21 433.24,483.74 399.50,497.88 365.76,510.09 363.51,546.07 339.73,571.46 317.88,593.95 325.27,615.80 361.26,627.69 389.86,646.65 384.08,682.63 361.26,708.98 351.30,744.97 363.51,769.07 393.71,788.35 421.03,809.23 442.88,834.94 474.04,851.00 500.39,843.29 528.99,824.33 564.98,824.33 591.32,800.56 608.35,771.64 605.78,733.08 629.88,723.44 651.41,697.09 665.87,663.68 694.47,644.40 711.50,613.23 721.14,577.24 704.11,548.32 686.76,517.16 657.52,498.20 620.24,488.56 639.52,467.03 676.15,476.35 713.75,483.74 744.91,481.17 776.08,462.21 792.79,434.58 800.18,404.69 819.46,378.03 840.99,349.43 872.16,334.00 872.48,296.73 891.43,267.81 862.52,255.92 869.58,222.19 867.34,181.38 852.88,147.96 850.63,114.22 816.89,109.40 776.08,111.97 747.48,94.95 725.63,90.45 699.61,80.81 675.51,57.99 635.02,49.64" fill="none" stroke="#cff713" stroke-opacity="0.838" stroke-width="1.2" stroke-linejoin="round"/><polyline points="617.99,42.25 589.08,56.71 588.75,94.95 562.73,114.22 526.42,123.86 537.99,159.85 560.16,186.20 567.55,224.76 589.72,251.11 620.24,253.35 641.77,277.45 619.60,303.80 617.99,349.43 609.32,390.24 572.37,395.05 533.81,387.66 514.85,414.01 488.18,438.11 464.40,461.89 438.06,483.74 406.89,500.45 370.90,502.70 363.51,536.43 349.05,572.42 325.27,589.13 322.70,615.48 353.87,622.87 387.61,622.87 394.68,658.86 382.79,694.84 356.44,716.37 346.80,754.61 373.15,776.14 400.78,795.42 428.10,816.94 454.76,838.79 483.68,856.47 507.46,831.40 546.02,824.33 574.62,814.69 598.71,788.35 600.96,755.89 607.07,721.19 639.52,711.55 657.84,680.38 675.51,651.47 701.86,627.69 718.57,597.48 716.32,559.25 697.68,529.37 670.69,507.52 636.95,495.63 605.78,476.35 634.70,464.46 672.94,475.38 713.75,482.45 747.48,477.95 778.65,459.64 790.54,433.29 802.43,403.41 819.46,373.21 842.59,346.86 873.12,330.15 872.80,291.91 891.11,265.24 858.02,248.53 861.23,207.73 831.35,191.02 812.07,159.85 783.47,140.57 764.19,114.22 735.27,99.76 697.04,92.70 685.15,61.53 646.59,54.46" fill="none" stroke="#cff713" stroke-opacity="0.838" stroke-width="1.2" stroke-linejoin="round"/><polyline points="617.99,40.00 588.75,54.46 588.75,92.70 564.33,114.22 526.74,116.79 533.81,155.03 531.56,186.20 526.74,215.12 510.03,243.71 538.63,253.35 569.80,235.36 598.39,255.92 634.38,258.17 629.88,284.20 619.28,320.51 615.74,366.14 586.50,369.67 541.20,368.39 510.03,385.42 495.57,416.58 474.04,442.93 452.19,469.28 421.03,488.56 382.79,497.55 360.94,521.97 358.69,557.96 330.09,572.42 310.49,601.34 337.16,622.87 373.15,632.51 392.11,658.86 375.72,692.27 353.87,716.37 345.20,757.18 372.83,778.71 401.75,797.99 428.10,819.51 454.44,841.04 483.68,858.07 507.46,834.94 543.45,822.41 574.62,815.02 598.07,790.60 627.31,773.89 636.95,740.15 649.16,701.91 672.94,677.81 692.22,651.47 708.93,620.30 721.46,584.31 706.68,550.89 689.65,519.73 663.30,500.45 651.41,474.10 692.22,481.17 728.21,488.56 759.37,473.46 792.79,457.39 786.04,418.83 814.64,397.30 826.53,361.32 852.88,340.11 879.22,318.26 879.22,284.52 886.61,258.17 860.59,238.89 872.16,202.91 862.52,166.92 858.02,126.43 831.35,104.58 792.79,107.16 754.55,99.76 730.45,83.06 699.61,87.88 682.58,57.67 641.77,51.57" fill="none" stroke="#99f713" stroke-opacity="0.806" stroke-width="1.2" stroke-linejoin="round"/><polyline points="610.60,40.00 586.50,60.89 588.75,99.76 557.91,112.94 526.42,128.68 539.59,162.42 548.27,202.91 562.73,234.08 593.89,253.35 629.88,254.96 634.70,281.95 619.60,313.44 617.35,359.07 591.32,375.78 557.91,368.39 519.35,378.03 502.64,406.94 483.68,438.11 461.83,462.21 433.24,483.74 399.50,497.88 365.76,510.09 363.51,546.07 339.73,571.46 317.88,593.95 325.27,615.80 361.26,627.69 389.86,646.65 384.08,682.63 361.26,708.98 351.30,744.97 363.51,769.07 393.71,788.35 421.03,809.23 442.88,834.94 474.04,851.00 500.39,843.29 528.99,824.33 564.98,824.33 591.32,800.56 608.35,771.64 605.78,733.08 629.88,723.44 651.41,697.09 665.87,663.68 694.47,644.40 711.50,613.23 721.14,577.24 704.11,548.32 686.76,517.16 657.52,498.20 620.24,488.56 639.52,467.03 676.15,476.35 713.75,483.74 744.91,481.17 776.08,462.21 792.79,434.58 800.18,404.69 819.46,378.03 840.99,349.43 872.16,334.00 872.48,296.73 891.43,267.81 862.52,255.92 869.58,222.19 867.34,181.38 852.88,147.96 850.63,114.22 816.89,109.40 776.08,111.97 747.48,94.95 725.63,90.45 699.61,80.81 675.51,57.99 635.02,49.64" fill="none" stroke="#99f713" stroke-opacity="0.806" stroke-width="1.2" stroke-linejoin="round"/><polyline points="620.24,40.00 588.43,51.89 588.43,90.45 562.73,111.97 526.10,119.04 535.74,157.60 526.74,186.20 526.74,217.37 509.71,246.29 538.63,255.92 569.80,236.65 598.71,256.25 634.70,258.82 629.24,284.52 619.28,323.08 615.42,366.14 586.50,368.39 538.63,368.06 507.46,385.42 493.00,416.58 473.72,445.18 449.95,471.53 421.03,488.56 380.54,497.55 358.69,524.55 358.37,560.53 329.77,574.67 310.49,603.59 337.16,622.87 375.40,634.76 391.79,661.11 373.15,692.27 353.55,718.62 344.55,757.18 370.90,776.78 399.50,795.74 427.77,816.94 452.19,838.79 481.11,858.07 507.46,836.22 541.20,822.73 570.44,819.51 594.54,795.42 627.31,780.96 637.27,742.72 649.16,704.16 680.33,687.45 697.04,668.50 704.11,627.69 720.82,596.52 714.07,555.71 697.04,526.47 677.76,498.20 706.68,479.24 742.66,485.99 769.01,467.03 793.43,442.93 792.79,407.59 819.78,387.66 834.24,354.25 867.34,337.54 876.97,308.62 886.61,277.45 872.16,255.60 867.66,229.58 870.23,193.59 855.45,159.85 855.45,116.79 823.96,102.34 788.29,90.45 756.80,99.76 730.45,80.81 699.93,90.45 685.15,58.96 644.34,51.57" fill="none" stroke="#64f713" stroke-opacity="0.774" stroke-width="1.2" stroke-linejoin="round"/><polyline points="617.99,40.00 588.75,54.46 588.75,92.70 564.33,114.22 526.74,116.79 533.81,155.03 531.56,186.20 526.74,215.12 510.03,243.71 538.63,253.35 569.80,235.36 598.39,255.92 634.38,258.17 629.88,284.20 619.28,320.51 615.74,366.14 586.50,369.67 541.20,368.39 510.03,385.42 495.57,416.58 474.04,442.93 452.19,469.28 421.03,488.56 382.79,497.55 360.94,521.97 358.69,557.96 330.09,572.42 310.49,601.34 337.16,622.87 373.15,632.51 392.11,658.86 375.72,692.27 353.87,716.37 345.20,757.18 372.83,778.71 401.75,797.99 428.10,819.51 454.44,841.04 483.68,858.07 507.46,834.94 543.45,822.41 574.62,815.02 598.07,790.60 627.31,773.89 636.95,740.15 649.16,701.91 672.94,677.81 692.22,651.47 708.93,620.30 721.46,584.31 706.68,550.89 689.65,519.73 663.30,500.45 651.41,474.10 692.22,481.17 728.21,488.56 759.37,473.46 792.79,457.39 786.04,418.83 814.64,397.30 826.53,361.32 852.88,340.11 879.22,318.26 879.22,284.52 886.61,258.17 860.59,238.89 872.16,202.91 862.52,166.92 858.02,126.43 831.35,104.58 792.79,107.16 754.55,99.76 730.45,83.06 699.61,87.88 682.58,57.67 641.77,51.57" fill="none" stroke="#64f713" stroke-opacity="0.774" stroke-width="1.2" stroke-linejoin="round"/><polyline points="620.56,40.00 588.43,51.89 588.43,90.45 563.05,111.97 526.10,119.04 535.74,157.60 526.42,186.20 526.74,217.69 509.39,246.29 538.95,255.92 569.80,236.97 598.71,256.25 634.70,258.82 629.24,284.52 618.96,323.08 615.10,366.14 586.50,368.39 538.63,368.06 507.46,385.09 493.00,416.58 473.40,445.18 449.95,471.53 420.71,488.56 380.54,497.23 358.69,524.22 358.05,560.53 329.45,574.67 310.49,603.59 337.16,623.19 375.08,634.76 391.79,661.11 373.15,691.95 353.23,718.62 344.23,757.18 370.90,776.78 399.50,796.06 427.45,816.94 452.19,839.11 481.11,858.39 507.46,836.54 541.20,823.05 570.76,819.51 594.54,795.42 627.63,780.96 637.59,742.72 649.16,704.48 680.33,687.77 697.36,668.50 704.43,627.69 721.14,596.52 714.39,555.71 697.04,526.47 682.58,498.20 708.93,481.49 743.31,483.74 771.90,464.46 795.36,438.11 792.79,407.91 819.78,387.66 834.24,354.25 867.34,337.86 876.97,308.30 886.94,277.45 872.16,255.28 867.66,229.58 870.23,193.59 855.77,159.85 855.77,116.79 823.96,102.01 788.29,90.13 757.12,99.76 730.45,80.49 700.25,90.45 685.15,58.64 644.34,51.57" fill="none" stroke="#2ef713" stroke-opacity="0.741" stroke-width="1.2" stroke-linejoin="round"/><polyline points="620.24,40.00 588.43,51.89 588.43,90.45 562.73,111.97 526.10,119.04 535.74,157.60 526.74,186.20 526.74,217.37 509.71,246.29 538.63,255.92 569.80,236.65 598.71,256.25 634.70,258.82 629.24,284.52 619.28,323.08 615.42,366.14 586.50,368.39 538.63,368.06 507.46,385.42 493.00,416.58 473.72,445.18 449.95,471.53 421.03,488.56 380.54,497.55 358.69,524.55 358.37,560.53 329.77,574.67 310.49,603.59 337.16,622.87 375.40,634.76 391.79,661.11 373.15,692.27 353.55,718.62 344.55,757.18 370.90,776.78 399.50,795.74 427.77,816.94 452.19,838.79 481.11,858.07 507.46,836.22 541.20,822.73 570.44,819.51 594.54,795.42 627.31,780.96 637.27,742.72 649.16,704.16 680.33,687.45 697.04,668.50 704.11,627.69 720.82,596.52 714.07,555.71 697.04,526.47 677.76,498.20 706.68,479.24 742.66,485.99 769.01,467.03 793.43,442.93 792.79,407.59 819.78,387.66 834.24,354.25 867.34,337.54 876.97,308.62 886.61,277.45 872.16,255.60 867.66,229.58 870.23,193.59 855.45,159.85 855.45,116.79 823.96,102.34 788.29,90.45 756.80,99.76 730.45,80.81 699.93,90.45 685.15,58.96 644.34,51.57" fill="none" stroke="#2ef713" stroke-opacity="0.741" stroke-width="1.2" stroke-linejoin="round"/><polyline points="620.56,40.00 588.11,51.89 588.11,90.45 563.05,111.97 525.78,119.04 535.42,157.60 526.10,186.20 526.74,218.01 509.39,246.29 539.27,255.92 569.80,236.97 598.71,256.57 634.70,259.14 628.92,284.52 618.96,323.08 615.10,366.14 586.50,368.06 538.63,367.74 507.46,384.77 492.68,416.58 473.40,445.18 449.95,471.21 420.38,488.56 380.54,497.23 358.69,523.90 358.05,560.53 329.45,574.67 310.17,603.59 337.16,623.51 375.08,634.76 391.47,661.11 373.15,691.95 353.23,718.62 343.91,757.18 370.90,777.10 399.50,796.38 427.45,816.94 452.19,839.44 481.11,858.71 507.46,836.87 541.20,823.05 570.76,819.51 594.86,795.42 627.95,780.96 637.59,742.72 649.16,704.80 680.33,688.10 697.36,668.50 704.75,627.69 721.46,596.52 714.71,555.71 697.04,526.15 682.58,498.20 708.93,481.81 743.31,483.74 772.23,464.46 795.36,438.43 792.79,407.91 820.10,387.66 834.56,354.25 867.34,337.86 876.97,307.98 887.26,277.45 872.16,255.28 867.98,229.58 870.55,193.59 856.09,159.85 856.09,116.79 823.96,101.69 788.29,89.80 757.45,99.76 730.45,80.16 700.25,90.45 685.15,58.32 644.34,51.25" fill="none" stroke="#13f72e" stroke-opacity="0.709" stroke-width="1.2" stroke-linejoin="round"/><polyline points="620.56,40.00 588.43,51.89 588.43,90.45 563.05,111.97 526.10,119.04 535.74,157.60 526.42,186.20 526.74,217.69 509.39,246.29 538.95,255.92 569.80,236.97 598.71,256.25 634.70,258.82 629.24,284.52 618.96,323.08 615.10,366.14 586.50,368.39 538.63,368.06 507.46,385.09 493.00,416.58 473.40,445.18 449.95,471.53 420.71,488.56 380.54,497.23 358.69,524.22 358.05,560.53 329.45,574.67 310.49,603.59 337.16,623.19 375.08,634.76 391.79,661.11 373.15,691.95 353.23,718.62 344.23,757.18 370.90,776.78 399.50,796.06 427.45,816.94 452.19,839.11 481.11,858.39 507.46,836.54 541.20,823.05 570.76,819.51 594.54,795.42 627.63,780.96 637.59,742.72 649.16,704.48 680.33,687.77 697.36,668.50 704.43,627.69 721.14,596.52 714.39,555.71 697.04,526.47 682.58,498.20 708.93,481.49 743.31,483.74 771.90,464.46 795.36,438.11 792.79,407.91 819.78,387.66 834.24,354.25 867.34,337.86 876.97,308.30 886.94,277.45 872.16,255.28 867.66,229.58 870.23,193.59 855.77,159.85 855.77,116.79 823.96,102.01 788.29,90.13 757.12,99.76 730.45,80.49 700.25,90.45 685.15,58.64 644.34,51.57" fill="none" stroke="#13f72e" stroke-opacity="0.709" stroke-width="1.2" stroke-linejoin="round"/><polyline points="620.89,40.00 587.79,51.89 587.79,90.45 563.37,111.97 525.45,119.04 535.42,157.60 526.10,186.20 526.74,218.01 509.07,246.29 539.27,255.92 569.80,237.29 598.71,256.89 634.70,259.46 628.60,284.52 618.96,323.08 614.78,366.14 586.50,367.74 538.63,367.42 507.46,384.45 492.36,416.58 473.08,445.18 449.95,470.89 420.38,488.56 380.54,496.91 358.69,523.58 357.73,560.53 329.13,574.67 309.85,603.59 337.16,623.51 374.76,634.76 391.14,661.11 373.15,691.63 352.91,718.62 343.59,757.18 370.90,777.42 399.50,796.38 427.13,816.94 452.19,839.44 481.11,858.71 507.46,836.87 541.20,823.05 571.08,819.51 594.86,795.42 628.28,780.96 637.92,742.72 649.16,705.13 680.33,688.10 697.68,668.50 704.75,627.69 721.78,596.52 714.71,555.71 697.04,525.83 682.58,498.52 708.93,482.13 743.63,483.74 772.23,464.46 795.36,438.75 792.79,408.23 820.42,387.66 834.56,354.25 867.34,338.18 876.97,307.98 887.26,277.45 872.16,254.96 868.30,229.58 870.55,193.59 856.09,159.85 856.09,116.79 823.96,101.69 788.29,89.48 757.77,99.76 730.45,79.84 700.57,90.45 685.15,58.32 644.34,50.92" fill="none" stroke="#13f764" stroke-opacity="0.676" stroke-width="1.2" stroke-linejoin="round"/><polyline points="620.56,40.00 588.11,51.89 588.11,90.45 563.05,111.97 525.78,119.04 535.42,157.60 526.10,186.20 526.74,218.01 509.39,246.29 539.27,255.92 569.80,236.97 598.71,256.57 634.70,259.14 628.92,284.52 618.96,323.08 615.10,366.14 586.50,368.06 538.63,367.74 507.46,384.77 492.68,416.58 473.40,445.18 449.95,471.21 420.38,488.56 380.54,497.23 358.69,523.90 358.05,560.53 329.45,574.67 310.17,603.59 337.16,623.51 375.08,634.76 391.47,661.11 373.15,691.95 353.23,718.62 343.91,757.18 370.90,777.10 399.50,796.38 427.45,816.94 452.19,839.44 481.11,858.71 507.46,836.87 541.20,823.05 570.76,819.51 594.86,795.42 627.95,780.96 637.59,742.72 649.16,704.80 680.33,688.10 697.36,668.50 704.75,627.69 721.46,596.52 714.71,555.71 697.04,526.15 682.58,498.20 708.93,481.81 743.31,483.74 772.23,464.46 795.36,438.43 792.79,407.91 820.10,387.66 834.56,354.25 867.34,337.86 876.97,307.98 887.26,277.45 872.16,255.28 867.98,229.58 870.55,193.59 856.09,159.85 856.09,116.79 823.96,101.69 788.29,89.80 757.45,99.76 730.45,80.16 700.25,90.45 685.15,58.32 644.34,51.25" fill="none" stroke="#13f764" stroke-opacity="0.676" stroke-width="1.2" stroke-linejoin="round"/><polyline points="621.21,40.00 587.79,51.89 587.79,90.45 563.69,111.97 525.45,119.04 535.09,157.60 525.78,186.20 526.74,218.33 508.75,246.29 539.59,255.92 569.80,237.61 598.71,256.89 634.70,259.46 628.60,284.52 618.64,323.08 614.46,366.14 586.50,367.42 538.63,367.42 507.46,384.45 492.04,416.58 472.76,445.18 449.95,470.56 420.06,488.56 380.54,496.91 358.69,523.58 357.73,560.53 328.81,574.67 309.85,603.59 337.16,623.83 374.44,634.76 391.14,661.11 373.15,691.31 352.59,718.62 343.59,757.18 370.90,777.42 399.50,796.70 427.13,816.94 452.19,839.76 481.11,859.04 507.46,837.19 541.20,823.37 571.08,819.51 595.18,795.42 628.28,780.96 638.24,742.72 649.16,705.13 680.33,688.42 698.00,668.50 705.07,627.69 721.78,596.52 715.03,555.71 697.04,525.83 682.58,498.84 708.93,482.13 743.63,483.74 772.55,464.46 795.36,438.75 792.79,408.23 820.42,387.66 834.88,354.25 867.34,338.50 876.97,307.66 887.58,277.45 872.16,254.64 868.30,229.58 870.87,193.59 856.41,159.85 856.41,116.79 823.96,101.37 788.29,89.48 757.77,99.76 730.45,79.84 700.57,90.45 685.15,57.99 644.34,50.92" fill="none" stroke="#13f799" stroke-opacity="0.644" stroke-width="1.2" stroke-linejoin="round"/><polyline points="620.89,40.00 587.79,51.89 587.79,90.45 563.37,111.97 525.45,119.04 535.42,157.60 526.10,186.20 526.74,218.01 509.07,246.29 539.27,255.92 569.80,237.29 598.71,256.89 634.70,259.46 628.60,284.52 618.96,323.08 614.78,366.14 586.50,367.74 538.63,367.42 507.46,384.45 492.36,416.58 473.08,445.18 449.95,470.89 420.38,488.56 380.54,496.91 358.69,523.58 357.73,560.53 329.13,574.67 309.85,603.59 337.16,623.51 374.76,634.76 391.14,661.11 373.15,691.63 352.91,718.62 343.59,757.18 370.90,777.42 399.50,796.38 427.13,816.94 452.19,839.44 481.11,858.71 507.46,836.87 541.20,823.05 571.08,819.51 594.86,795.42 628.28,780.96 637.92,742.72 649.16,705.13 680.33,688.10 697.68,668.50 704.75,627.69 721.78,596.52 714.71,555.71 697.04,525.83 682.58,498.52 708.93,482.13 743.63,483.74 772.23,464.46 795.36,438.75 792.79,408.23 820.42,387.66 834.56,354.25 867.34,338.18 876.97,307.98 887.26,277.45 872.16,254.96 868.30,229.58 870.55,193.59 856.09,159.85 856.09,116.79 823.96,101.69 788.29,89.48 757.77,99.76 730.45,79.84 700.57,90.45 685.15,58.32 644.34,50.92" fill="none" stroke="#13f799" stroke-opacity="0.644" stroke-width="1.2" stroke-linejoin="round"/><polyline points="621.53,40.00 587.47,51.89 587.47,90.45 564.01,111.97 525.13,119.04 534.77,157.60 525.45,186.20 526.74,218.65 508.75,246.29 539.91,255.92 569.80,237.93 598.71,257.21 634.70,259.78 628.28,284.52 618.64,323.08 614.14,366.14 586.50,367.42 538.63,367.10 507.46,384.13 492.04,416.58 472.76,445.18 449.95,470.56 419.74,488.56 380.54,496.59 358.69,523.26 357.41,560.53 328.81,574.67 309.53,603.59 337.16,624.15 374.44,634.76 390.82,661.11 373.15,690.99 352.59,718.62 343.27,757.18 370.90,777.74 399.50,797.02 426.81,816.94 452.19,840.08 481.11,859.36 507.46,837.51 541.20,823.37 571.40,819.51 595.18,795.42 628.60,780.96 638.24,742.72 649.16,705.45 680.33,688.74 698.32,668.50 705.39,627.69 722.10,596.52 715.03,555.71 697.04,525.51 682.58,499.16 708.93,482.45 743.95,483.74 772.87,464.46 795.36,439.08 792.79,408.55 820.74,387.66 835.20,354.25 867.34,338.50 876.97,307.34 887.90,277.45 872.16,254.64 868.62,229.58 871.19,193.59 856.73,159.85 856.73,116.79 823.96,101.05 788.29,89.16 758.09,99.76 730.45,79.52 700.89,90.45 685.15,57.67 644.34,50.60" fill="none" stroke="#13f7cf" stroke-opacity="0.612" stroke-width="1.2" stroke-linejoin="round"/><polyline points="621.21,40.00 587.79,51.89 587.79,90.45 563.69,111.97 525.45,119.04 535.09,157.60 525.78,186.20 526.74,218.33 508.75,246.29 539.59,255.92 569.80,237.61 598.71,256.89 634.70,259.46 628.60,284.52 618.64,323.08 614.46,366.14 586.50,367.42 538.63,367.42 507.46,384.45 492.04,416.58 472.76,445.18 449.95,470.56 420.06,488.56 380.54,496.91 358.69,523.58 357.73,560.53 328.81,574.67 309.85,603.59 337.16,623.83 374.44,634.76 391.14,661.11 373.15,691.31 352.59,718.62 343.59,757.18 370.90,777.42 399.50,796.70 427.13,816.94 452.19,839.76 481.11,859.04 507.46,837.19 541.20,823.37 571.08,819.51 595.18,795.42 628.28,780.96 638.24,742.72 649.16,705.13 680.33,688.42 698.00,668.50 705.07,627.69 721.78,596.52 715.03,555.71 697.04,525.83 682.58,498.84 708.93,482.13 743.63,483.74 772.55,464.46 795.36,438.75 792.79,408.23 820.42,387.66 834.88,354.25 867.34,338.50 876.97,307.66 887.58,277.45 872.16,254.64 868.30,229.58 870.87,193.59 856.41,159.85 856.41,116.79 823.96,101.37 788.29,89.48 757.77,99.76 730.45,79.84 700.57,90.45 685.15,57.99 644.34,50.92" fill="none" stroke="#13f7cf" stroke-opacity="0.612" stroke-width="1.2" stroke-linejoin="round"/><polyline points="621.53,40.00 587.47,51.89 587.47,90.45 564.01,111.97 525.13,119.04 534.77,157.60 525.13,186.20 526.74,218.97 508.42,246.29 540.24,255.92 569.80,237.93 598.71,257.53 634.70,259.78 628.28,284.52 618.32,323.08 614.14,366.14 586.50,367.10 538.63,366.78 507.46,383.81 491.72,416.58 472.44,445.18 449.95,470.24 419.74,488.56 380.54,496.27 358.69,522.94 357.08,560.53 328.49,574.67 309.21,603.59 337.16,624.15 374.11,634.76 390.82,661.11 373.15,690.99 352.26,718.62 342.95,757.18 370.90,777.74 399.50,797.02 426.49,816.94 452.19,840.08 481.11,859.36 507.46,837.83 541.20,823.69 571.40,819.51 595.50,795.42 628.92,780.96 638.56,742.72 649.16,705.77 680.33,689.06 698.32,668.50 705.71,627.69 722.42,596.52 715.35,555.71 697.04,525.19 682.58,499.48 708.93,482.77 744.27,483.74 772.87,464.46 795.36,439.40 792.79,408.55 821.07,387.66 835.20,354.25 867.34,338.82 876.97,307.01 887.90,277.45 872.16,254.32 868.94,229.58 871.19,193.59 856.73,159.85 856.73,116.79 823.96,100.73 788.29,88.84 758.41,99.76 730.45,79.20 700.89,90.45 685.15,57.67 644.34,50.28" fill="none" stroke="#13e9f7" stroke-opacity="0.579" stroke-width="1.2" stroke-linejoin="round"/><polyline points="621.53,40.00 587.47,51.89 587.47,90.45 564.01,111.97 525.13,119.04 534.77,157.60 525.45,186.20 526.74,218.65 508.75,246.29 539.91,255.92 569.80,237.93 598.71,257.21 634.70,259.78 628.28,284.52 618.64,323.08 614.14,366.14 586.50,367.42 538.63,367.10 507.46,384.13 492.04,416.58 472.76,445.18 449.95,470.56 419.74,488.56 380.54,496.59 358.69,523.26 357.41,560.53 328.81,574.67 309.53,603.59 337.16,624.15 374.44,634.76 390.82,661.11 373.15,690.99 352.59,718.62 343.27,757.18 370.90,777.74 399.50,797.02 426.81,816.94 452.19,840.08 481.11,859.36 507.46,837.51 541.20,823.37 571.40,819.51 595.18,795.42 628.60,780.96 638.24,742.72 649.16,705.45 680.33,688.74 698.32,668.50 705.39,627.69 722.10,596.52 715.03,555.71 697.04,525.51 682.58,499.16 708.93,482.45 743.95,483.74 772.87,464.46 795.36,439.08 792.79,408.55 820.74,387.66 835.20,354.25 867.34,338.50 876.97,307.34 887.90,277.45 872.16,254.64 868.62,229.58 871.19,193.59 856.73,159.85 856.73,116.79 823.96,101.05 788.29,89.16 758.09,99.76 730.45,79.52 700.89,90.45 685.15,57.67 644.34,50.60" fill="none" stroke="#13e9f7" stroke-opacity="0.579" stroke-width="1.2" stroke-linejoin="round"/><polyline points="621.85,40.00 587.15,51.89 587.15,90.45 564.33,111.97 524.81,119.04 534.45,157.60 525.13,186.20 526.74,218.97 508.10,246.29 540.24,255.92 569.80,238.25 598.71,257.53 634.70,260.10 627.95,284.52 618.32,323.08 613.82,366.14 586.50,366.78 538.63,366.78 507.46,383.49 491.39,416.58 472.12,445.18 449.95,469.92 419.42,488.56 380.54,496.27 358.69,522.62 357.08,560.53 328.17,574.67 309.21,603.59 337.16,624.47 373.79,634.76 390.50,661.11 373.15,690.67 352.26,718.62 342.63,757.18 370.90,778.06 399.50,797.34 426.49,816.94 452.19,840.40 481.11,859.68 507.46,837.83 541.20,823.69 571.72,819.51 595.82,795.42 629.24,780.96 638.88,742.72 649.16,706.09 680.33,689.06 698.64,668.50 705.71,627.69 722.74,596.52 715.67,555.71 697.04,525.19 682.58,499.80 708.93,483.10 744.27,483.74 773.19,464.46 795.36,439.72 792.79,408.87 821.07,387.66 835.53,354.25 867.34,339.15 876.97,307.01 888.22,277.45 872.16,254.00 868.94,229.58 871.51,193.59 857.05,159.85 857.05,116.79 823.96,100.73 788.29,88.52 758.73,99.76 730.45,78.88 701.21,90.45 685.15,57.35 644.34,50.28" fill="none" stroke="#13b4f7" stroke-opacity="0.547" stroke-width="1.2" stroke-linejoin="round"/><polyline points="621.53,40.00 587.47,51.89 587.47,90.45 564.01,111.97 525.13,119.04 534.77,157.60 525.13,186.20 526.74,218.97 508.42,246.29 540.24,255.92 569.80,237.93 598.71,257.53 634.70,259.78 628.28,284.52 618.32,323.08 614.14,366.14 586.50,367.10 538.63,366.78 507.46,383.81 491.72,416.58 472.44,445.18 449.95,470.24 419.74,488.56 380.54,496.27 358.69,522.94 357.08,560.53 328.49,574.67 309.21,603.59 337.16,624.15 374.11,634.76 390.82,661.11 373.15,690.99 352.26,718.62 342.95,757.18 370.90,777.74 399.50,797.02 426.49,816.94 452.19,840.08 481.11,859.36 507.46,837.83 541.20,823.69 571.40,819.51 595.50,795.42 628.92,780.96 638.56,742.72 649.16,705.77 680.33,689.06 698.32,668.50 705.71,627.69 722.42,596.52 715.35,555.71 697.04,525.19 682.58,499.48 708.93,482.77 744.27,483.74 772.87,464.46 795.36,439.40 792.79,408.55 821.07,387.66 835.20,354.25 867.34,338.82 876.97,307.01 887.90,277.45 872.16,254.32 868.94,229.58 871.19,193.59 856.73,159.85 856.73,116.79 823.96,100.73 788.29,88.84 758.41,99.76 730.45,79.20 700.89,90.45 685.15,57.67 644.34,50.28" fill="none" stroke="#13b4f7" stroke-opacity="0.547" stroke-width="1.2" stroke-linejoin="round"/><polyline points="622.17,40.00 587.15,51.89 587.15,90.45 564.66,111.97 524.81,119.04 534.45,157.60 524.81,186.20 526.74,219.29 508.10,246.29 540.56,255.92 569.80,238.57 598.71,257.85 634.70,260.10 627.95,284.52 617.99,323.08 613.50,366.14 586.50,366.46 538.63,366.46 507.46,383.49 491.07,416.58 472.12,445.18 449.95,469.60 419.10,488.56 380.54,495.95 358.69,522.62 356.76,560.53 328.17,574.67 308.89,603.59 337.16,624.80 373.47,634.76 390.50,661.11 373.15,690.34 351.94,718.62 342.63,757.18 370.90,778.39 399.50,797.34 426.17,816.94 452.19,840.72 481.11,859.68 507.46,838.15 541.20,824.01 572.05,819.51 595.82,795.42 629.24,780.96 638.88,742.72 649.16,706.09 680.33,689.38 698.97,668.50 706.03,627.69 722.74,596.52 715.67,555.71 697.04,524.87 682.58,499.80 708.93,483.10 744.59,483.74 773.19,464.46 795.36,440.04 792.79,408.87 821.39,387.66 835.85,354.25 867.34,339.47 876.97,306.69 888.54,277.45 872.16,254.00 869.26,229.58 871.83,193.59 857.37,159.85 857.37,116.79 823.96,100.41 788.29,88.52 758.73,99.76 730.45,78.88 701.54,90.45 685.15,57.03 644.34,49.96" fill="none" stroke="#137ef7" stroke-opacity="0.515" stroke-width="1.2" stroke-linejoin="round"/><polyline points="621.85,40.00 587.15,51.89 587.15,90.45 564.33,111.97 524.81,119.04 534.45,157.60 525.13,186.20 526.74,218.97 508.10,246.29 540.24,255.92 569.80,238.25 598.71,257.53 634.70,260.10 627.95,284.52 618.32,323.08 613.82,366.14 586.50,366.78 538.63,366.78 507.46,383.49 491.39,416.58 472.12,445.18 449.95,469.92 419.42,488.56 380.54,496.27 358.69,522.62 357.08,560.53 328.17,574.67 309.21,603.59 337.16,624.47 373.79,634.76 390.50,661.11 373.15,690.67 352.26,718.62 342.63,757.18 370.90,778.06 399.50,797.34 426.49,816.94 452.19,840.40 481.11,859.68 507.46,837.83 541.20,823.69 571.72,819.51 595.82,795.42 629.24,780.96 638.88,742.72 649.16,706.09 680.33,689.06 698.64,668.50 705.71,627.69 722.74,596.52 715.67,555.71 697.04,525.19 682.58,499.80 708.93,483.10 744.27,483.74 773.19,464.46 795.36,439.72 792.79,408.87 821.07,387.66 835.53,354.25 867.34,339.15 876.97,307.01 888.22,277.45 872.16,254.00 868.94,229.58 871.51,193.59 857.05,159.85 857.05,116.79 823.96,100.73 788.29,88.52 758.73,99.76 730.45,78.88 701.21,90.45 685.15,57.35 644.34,50.28" fill="none" stroke="#137ef7" stroke-opacity="0.515" stroke-width="1.2" stroke-linejoin="round"/><polyline points="622.49,40.00 586.83,51.89 586.83,90.45 564.98,111.97 524.49,119.04 534.13,157.60 524.49,186.20 526.74,219.62 507.78,246.29 540.88,255.92 569.80,238.89 598.71,257.85 634.70,260.42 627.63,284.52 617.99,323.08 613.17,366.14 586.50,366.46 538.63,366.46 507.46,383.17 491.07,416.58 471.79,445.18 449.95,469.60 419.10,488.56 380.54,495.95 358.69,522.30 356.76,560.53 327.84,574.67 308.57,603.59 337.16,624.80 373.47,634.76 390.18,661.11 373.15,690.02 351.94,718.62 342.30,757.18 370.90,778.39 399.50,797.66 426.17,816.94 452.19,840.72 481.11,860.00 507.46,838.47 541.20,824.01 572.05,819.51 596.14,795.42 629.56,780.96 639.20,742.72 649.16,706.41 680.33,689.70 699.29,668.50 706.36,627.69 723.06,596.52 716.00,555.71 697.04,524.55 682.58,500.13 708.93,483.42 744.91,483.74 773.51,464.46 795.36,440.36 792.79,409.19 821.39,387.66 835.85,354.25 867.34,339.47 876.97,306.37 888.54,277.45 872.16,253.68 869.58,229.58 871.83,193.59 857.37,159.85 857.37,116.79 823.96,100.09 788.29,88.20 759.05,99.76 730.45,78.56 701.54,90.45 685.15,57.03 644.34,49.64" fill="none" stroke="#1349f7" stroke-opacity="0.482" stroke-width="1.2" stroke-linejoin="round"/><polyline points="622.17,40.00 587.15,51.89 587.15,90.45 564.66,111.97 524.81,119.04 534.45,157.60 524.81,186.20 526.74,219.29 508.10,246.29 540.56,255.92 569.80,238.57 598.71,257.85 634.70,260.10 627.95,284.52 617.99,323.08 613.50,366.14 586.50,366.46 538.63,366.46 507.46,383.49 491.07,416.58 472.12,445.18 449.95,469.60 419.10,488.56 380.54,495.95 358.69,522.62 356.76,560.53 328.17,574.67 308.89,603.59 337.16,624.80 373.47,634.76 390.50,661.11 373.15,690.34 351.94,718.62 342.63,757.18 370.90,778.39 399.50,797.34 426.17,816.94 452.19,840.72 481.11,859.68 507.46,838.15 541.20,824.01 572.05,819.51 595.82,795.42 629.24,780.96 638.88,742.72 649.16,706.09 680.33,689.38 698.97,668.50 706.03,627.69 722.74,596.52 715.67,555.71 697.04,524.87 682.58,499.80 708.93,483.10 744.59,483.74 773.19,464.46 795.36,440.04 792.79,408.87 821.39,387.66 835.85,354.25 867.34,339.47 876.97,306.69 888.54,277.45 872.16,254.00 869.26,229.58 871.83,193.59 857.37,159.85 857.37,116.79 823.96,100.41 788.29,88.52 758.73,99.76 730.45,78.88 701.54,90.45 685.15,57.03 644.34,49.96" fill="none" stroke="#1349f7" stroke-opacity="0.482" stroke-width="1.2" stroke-linejoin="round"/><polyline points="622.49,40.00 586.83,51.89 586.83,90.45 564.98,111.97 524.49,119.04 534.13,157.60 524.49,186.20 526.74,219.62 507.78,246.29 540.88,255.92 569.80,238.89 598.71,257.85 634.70,260.42 627.63,284.52 617.99,323.08 613.17,366.14 586.50,366.46 538.63,366.46 507.46,383.17 491.07,416.58 471.79,445.18 449.95,469.60 419.10,488.56 380.54,495.95 358.69,522.30 356.76,560.53 327.84,574.67 308.57,603.59 337.16,624.80 373.47,634.76 390.18,661.11 373.15,690.02 351.94,718.62 342.30,757.18 370.90,778.39 399.50,797.66 426.17,816.94 452.19,840.72 481.11,860.00 507.46,838.47 541.20,824.01 572.05,819.51 596.14,795.42 629.56,780.96 639.20,742.72 649.16,706.41 680.33,689.70 699.29,668.50 706.36,627.69 723.06,596.52 716.00,555.71 697.04,524.55 682.58,500.13 708.93,483.42 744.91,483.74 773.51,464.46 795.36,440.36 792.79,409.19 821.39,387.66 835.85,354.25 867.34,339.47 876.97,306.37 888.54,277.45 872.16,253.68 869.58,229.58 871.83,193.59 857.37,159.85 857.37,116.79 823.96,100.09 788.29,88.20 759.05,99.76 730.45,78.56 701.54,90.45 685.15,57.03 644.34,49.64" fill="none" stroke="#1313f7" stroke-opacity="0.450" stroke-width="1.2" stroke-linejoin="round"/><polyline points="687.40,224.76 663.30,243.71 646.59,277.45 622.49,298.98 625.06,339.79 617.99,370.96 644.34,392.48 675.51,404.37 713.75,395.05 725.63,363.89 706.68,334.97 733.03,310.87 744.91,284.52 733.03,251.11 704.11,234.08" fill="none" stroke="#f71313" stroke-opacity="1.000" stroke-width="1.2" stroke-linejoin="round"/><polyline points="641.77,155.03 613.17,171.74 586.50,183.95 567.55,210.30 584.26,241.47 613.17,255.92 649.16,253.35 641.77,279.70 620.24,306.05 620.24,354.25 610.60,395.05 625.06,426.22 649.16,447.75 682.58,462.21 711.50,445.18 733.03,418.83 764.19,399.55 792.79,382.84 821.71,361.32 848.06,339.79 845.81,306.05 845.81,267.81 859.95,234.08 840.99,205.48 819.46,179.13 785.72,174.31 749.73,188.77 706.68,191.02 675.51,174.31 646.59,157.60" fill="none" stroke="#f74913" stroke-opacity="0.968" stroke-width="1.2" stroke-linejoin="round"/><polyline points="687.40,224.76 663.30,243.71 646.59,277.45 622.49,298.98 625.06,339.79 617.99,370.96 644.34,392.48 675.51,404.37 713.75,395.05 725.63,363.89 706.68,334.97 733.03,310.87 744.91,284.52 733.03,251.11 704.11,234.08" fill="none" stroke="#f74913" stroke-opacity="0.968" stroke-width="1.2" stroke-linejoin="round"/><polyline points="639.52,85.63 605.78,90.45 608.35,126.43 579.44,147.96 560.16,121.61 538.63,145.39 567.55,164.67 566.58,210.30 582.97,241.47 615.42,255.92 644.34,265.24 623.78,291.91 619.60,334.97 615.42,378.03 613.17,414.01 610.60,450.00 641.77,464.46 680.33,474.10 728.21,474.10 764.19,467.03 771.26,440.36 776.08,402.12 812.07,395.05 821.71,362.60 848.06,340.43 874.40,320.51 864.76,289.34 855.45,253.35 859.95,212.55 828.78,199.37 814.64,164.67 780.90,150.21 752.30,135.75 713.75,128.68 682.58,123.86 651.41,109.40" fill="none" stroke="#f77e13" stroke-opacity="0.935" stroke-width="1.2" stroke-linejoin="round"/><polyline points="641.77,155.03 613.17,171.74 586.50,183.95 567.55,210.30 584.26,241.47 613.17,255.92 649.16,253.35 641.77,279.70 620.24,306.05 620.24,354.25 610.60,395.05 625.06,426.22 649.16,447.75 682.58,462.21 711.50,445.18 733.03,418.83 764.19,399.55 792.79,382.84 821.71,361.32 848.06,339.79 845.81,306.05 845.81,267.81 859.95,234.08 840.99,205.48 819.46,179.13 785.72,174.31 749.73,188.77 706.68,191.02 675.51,174.31 646.59,157.60" fill="none" stroke="#f77e13" stroke-opacity="0.935" stroke-width="1.2" stroke-linejoin="round"/><polyline points="615.42,42.25 589.08,59.28 589.08,94.95 562.73,116.79 526.74,123.86 538.63,157.60 560.16,183.95 567.55,223.79 589.08,249.82 625.06,252.07 639.52,279.70 619.92,306.05 617.99,354.25 608.35,392.48 608.35,423.65 610.60,457.39 646.59,471.53 687.40,476.35 728.21,483.74 759.37,471.53 783.47,450.00 785.72,409.19 816.89,392.48 830.06,356.50 859.95,337.54 875.05,310.87 872.16,272.63 859.95,238.89 850.63,200.66 823.96,183.95 805.00,157.60 776.08,135.75 756.80,109.40 723.39,99.76 687.40,94.95 668.12,66.35 636.95,51.89" fill="none" stroke="#f7b413" stroke-opacity="0.903" stroke-width="1.2" stroke-linejoin="round"/><polyline points="639.52,85.63 605.78,90.45 608.35,126.43 579.44,147.96 560.16,121.61 538.63,145.39 567.55,164.67 566.58,210.30 582.97,241.47 615.42,255.92 644.34,265.24 623.78,291.91 619.60,334.97 615.42,378.03 613.17,414.01 610.60,450.00 641.77,464.46 680.33,474.10 728.21,474.10 764.19,467.03 771.26,440.36 776.08,402.12 812.07,395.05 821.71,362.60 848.06,340.43 874.40,320.51 864.76,289.34 855.45,253.35 859.95,212.55 828.78,199.37 814.64,164.67 780.90,150.21 752.30,135.75 713.75,128.68 682.58,123.86 651.41,109.40" fill="none" stroke="#f7b413" stroke-opacity="0.903" stroke-width="1.2" stroke-linejoin="round"/><polyline points="615.42,42.25 589.08,59.28 589.08,94.95 562.73,116.79 526.74,123.86 538.63,157.60 560.16,183.95 567.55,223.79 589.08,249.82 625.06,252.07 639.52,279.70 619.92,306.05 617.99,354.25 608.35,392.48 608.35,423.65 610.60,457.39 646.59,471.53 687.40,476.35 728.21,483.74 759.37,471.53 783.47,450.00 785.72,409.19 816.89,392.48 830.06,356.50 859.95,337.54 875.05,310.87 872.16,272.63 859.95,238.89 850.63,200.66 823.96,183.95 805.00,157.60 776.08,135.75 756.80,109.40 723.39,99.76 687.40,94.95 668.12,66.35 636.95,51.89" fill="none" stroke="#f7e913" stroke-opacity="0.871" stroke-width="1.2" stroke-linejoin="round"/>
    <line x1="535.52" y1="733.18" x2="547.52" y2="745.18" stroke="#ff3b30" stroke-width="2.2" stroke-linecap="round"/><line x1="535.52" y1="745.18" x2="547.52" y2="733.18" stroke="#ff3b30" stroke-width="2.2" stroke-linecap="round"/><line x1="715.46" y1="277.88" x2="727.46" y2="289.88" stroke="#ff3b30" stroke-width="2.2" stroke-linecap="round"/><line x1="715.46" y1="289.88" x2="727.46" y2="277.88" stroke="#ff3b30" stroke-width="2.2" stroke-linecap="round"/>
    <defs>
      <linearGradient id="heightGradient" x1="0%" y1="100%" x2="0%" y2="0%">
        <stop offset="0%" stop-color="#1313f7"/>
        <stop offset="25%" stop-color="#13f7f7"/>
        <stop offset="50%" stop-color="#13f713"/>
        <stop offset="75%" stop-color="#f7f713"/>
        <stop offset="100%" stop-color="#f71313"/>
      </linearGradient>
    </defs>
    <rect x="28" y="28" width="343" height="242" rx="16" ry="16" fill="transparent" stroke="#3f3f46"/>
    <text x="58" y="64" fill="#bdbdbd" font-size="20" font-family="system-ui, -apple-system, Segoe UI, Roboto, sans-serif">
      Heights:
    </text>
    <rect x="58" y="96" width="31" height="143" fill="url(#heightGradient)" stroke="#404040"/>
    <text x="105" y="112" fill="#bdbdbd" font-size="17" font-family="system-ui, -apple-system, Segoe UI, Roboto, sans-serif">18.00 m</text>
    <text x="105" y="173" fill="#bdbdbd" font-size="17" font-family="system-ui, -apple-system, Segoe UI, Roboto, sans-serif">9.50 m</text>
    <text x="105" y="237" fill="#bdbdbd" font-size="17" font-family="system-ui, -apple-system, Segoe UI, Roboto, sans-serif">1.00 m</text>
  </svg>