ply
format ascii 1.0
element vertex 192
property float x
property float y
property float z
property float nx
property float ny
property float nz
element face 192
property list uchar int vertex_indices
end_header
10 0 0 1 0 0
10 120 0 1 0 0
9.80785 0 1.9509 0.980785 0 0.19509
9.80785 120 1.9509 0.980785 0 0.19509
9.2388 0 3.82683 0.92388 0 0.382683
9.2388 120 3.82683 0.92388 0 0.382683
8.3147 0 5.5557 0.83147 0 0.55557
8.3147 120 5.5557 0.83147 0 0.55557
7.07107 0 7.07107 0.707107 0 0.707107
7.07107 120 7.07107 0.707107 0 0.707107
5.5557 0 8.3147 0.55557 0 0.83147
5.5557 120 8.3147 0.55557 0 0.83147
3.82683 0 9.2388 0.382683 0 0.92388
3.82683 120 9.2388 0.382683 0 0.92388
1.9509 0 9.80785 0.19509 0 0.980785
1.9509 120 9.80785 0.19509 0 0.980785
7.54979e-07 0 10 7.54979e-08 0 1
7.54979e-07 120 10 7.54979e-08 0 1
-1.9509 0 9.80785 -0.19509 0 0.980785
-1.9509 120 9.80785 -0.19509 0 0.980785
-3.82683 0 9.2388 -0.382683 0 0.92388
-3.82683 120 9.2388 -0.382683 0 0.92388
-5.5557 0 8.3147 -0.55557 0 0.83147
-5.5557 120 8.3147 -0.55557 0 0.83147
-7.07107 0 7.07107 -0.707107 0 0.707107
-7.07107 120 7.07107 -0.707107 0 0.707107
-8.3147 0 5.5557 -0.83147 0 0.55557
-8.3147 120 5.5557 -0.83147 0 0.55557
-9.2388 0 3.82683 -0.92388 0 0.382683
-9.2388 120 3.82683 -0.92388 0 0.382683
-9.80785 0 1.95091 -0.980785 0 0.195091
-9.80785 120 1.95091 -0.980785 0 0.195091
-10 0 1.50996e-06 -1 0 1.50996e-07
-10 120 1.50996e-06 -1 0 1.50996e-07
-9.80785 0 -1.9509 -0.980785 0 -0.19509
-9.80785 120 -1.9509 -0.980785 0 -0.19509
-9.2388 0 -3.82683 -0.92388 0 -0.382683
-9.2388 120 -3.82683 -0.92388 0 -0.382683
-8.3147 0 -5.5557 -0.83147 0 -0.55557
-8.3147 120 -5.5557 -0.83147 0 -0.55557
-7.07107 0 -7.07107 -0.707107 0 -0.707107
-7.07107 120 -7.07107 -0.707107 0 -0.707107
-5.5557 0 -8.31469 -0.55557 0 -0.83147
-5.5557 120 -8.31469 -0.55557 0 -0.83147
-3.82684 0 -9.2388 -0.382684 0 -0.92388
-3.82684 120 -9.2388 -0.382684 0 -0.92388
-1.9509 0 -9.80785 -0.19509 0 -0.980785
-1.9509 120 -9.80785 -0.19509 0 -0.980785
1.19249e-07 0 -10 1.19249e-08 0 -1
1.19249e-07 120 -10 1.19249e-08 0 -1
1.9509 0 -9.80785 0.19509 0 -0.980785
1.9509 120 -9.80785 0.19509 0 -0.980785
3.82683 0 -9.2388 0.382683 0 -0.92388
3.82683 120 -9.2388 0.382683 0 -0.92388
5.5557 0 -8.3147 0.55557 0 -0.83147
5.5557 120 -8.3147 0.55557 0 -0.83147
7.07107 0 -7.07107 0.707107 0 -0.707107
7.07107 120 -7.07107 0.707107 0 -0.707107
8.3147 0 -5.5557 0.83147 0 -0.55557
8.3147 120 -5.5557 0.83147 0 -0.55557
9.23879 0 -3.82684 0.923879 0 -0.382684
9.23879 120 -3.82684 0.923879 0 -0.382684
9.80785 0 -1.95091 0.980785 0 -0.195091
9.80785 120 -1.95091 0.980785 0 -0.195091
9.06308 124.226 0 0.906308 0.422618 0
-41.6511 232.983 0 0.906308 0.422618 0
8.88893 124.145 1.9509 0.888893 0.414498 0.19509
-41.8253 232.902 1.9509 0.888893 0.414498 0.19509
8.37319 123.904 3.82683 0.837319 0.390448 0.382683
-42.341 232.661 3.82683 0.837319 0.390448 0.382683
7.53567 123.514 5.5557 0.753567 0.351394 0.55557
-43.1785 232.271 5.5557 0.753567 0.351394 0.55557
6.40856 122.988 7.07107 0.640856 0.298836 0.707107
-44.3056 231.745 7.07107 0.640856 0.298836 0.707107
5.03518 122.348 8.3147 0.503518 0.234794 0.83147
-45.679 231.105 8.3147 0.503518 0.234794 0.83147
3.46829 121.617 9.2388 0.346829 0.161729 0.92388
-47.2459 230.374 9.2388 0.346829 0.161729 0.92388
1.76812 120.824 9.80785 0.176812 0.0824488 0.980785
-48.9461 229.581 9.80785 0.176812 0.0824488 0.980785
6.84243e-07 120 10 6.84243e-08 3.19068e-08 1
-50.7142 228.757 10 6.84243e-08 3.19068e-08 1
-1.76812 119.176 9.80785 -0.176812 -0.0824487 0.980785
-52.4823 227.932 9.80785 -0.176812 -0.0824487 0.980785
-3.46829 118.383 9.2388 -0.346829 -0.161729 0.92388
-54.1825 227.14 9.2388 -0.346829 -0.161729 0.92388
-5.03518 117.652 8.3147 -0.503518 -0.234794 0.83147
-55.7494 226.409 8.3147 -0.503518 -0.234794 0.83147
-6.40856 117.012 7.07107 -0.640856 -0.298836 0.707107
-57.1228 225.769 7.07107 -0.640856 -0.298836 0.707107
-7.53567 116.486 5.5557 -0.753567 -0.351394 0.55557
-58.2499 225.243 5.5557 -0.753567 -0.351394 0.55557
-8.37319 116.096 3.82683 -0.837319 -0.390448 0.382683
-59.0874 224.852 3.82683 -0.837319 -0.390448 0.382683
-8.88893 115.855 1.95091 -0.888893 -0.414498 0.195091
-59.6031 224.612 1.95091 -0.888893 -0.414498 0.195091
-9.06308 115.774 1.50996e-06 -0.906308 -0.422618 1.50996e-07
-59.7773 224.531 1.50996e-06 -0.906308 -0.422618 1.50996e-07
-8.88893 115.855 -1.9509 -0.888893 -0.414498 -0.19509
-59.6031 224.612 -1.9509 -0.888893 -0.414498 -0.19509
-8.37319 116.096 -3.82683 -0.837319 -0.390448 -0.382683
-59.0874 224.852 -3.82683 -0.837319 -0.390448 -0.382683
-7.53567 116.486 -5.5557 -0.753567 -0.351394 -0.55557
-58.2499 225.243 -5.5557 -0.753567 -0.351394 -0.55557
-6.40857 117.012 -7.07107 -0.640857 -0.298836 -0.707107
-57.1228 225.769 -7.07107 -0.640857 -0.298836 -0.707107
-5.03518 117.652 -8.31469 -0.503518 -0.234794 -0.83147
-55.7494 226.409 -8.31469 -0.503518 -0.234794 -0.83147
-3.46829 118.383 -9.2388 -0.346829 -0.161729 -0.92388
-54.1825 227.14 -9.2388 -0.346829 -0.161729 -0.92388
-1.76812 119.176 -9.80785 -0.176812 -0.0824488 -0.980785
-52.4823 227.932 -9.80785 -0.176812 -0.0824488 -0.980785
1.08076e-07 120 -10 1.08076e-08 5.03967e-09 -1
-50.7142 228.757 -10 1.08076e-08 5.03967e-09 -1
1.76812 120.824 -9.80785 0.176812 0.0824486 -0.980785
-48.9461 229.581 -9.80785 0.176812 0.0824486 -0.980785
3.46829 121.617 -9.2388 0.346829 0.161729 -0.92388
-47.2459 230.374 -9.2388 0.346829 0.161729 -0.92388
5.03517 122.348 -8.3147 0.503517 0.234794 -0.83147
-45.679 231.105 -8.3147 0.503517 0.234794 -0.83147
6.40856 122.988 -7.07107 0.640856 0.298836 -0.707107
-44.3056 231.745 -7.07107 0.640856 0.298836 -0.707107
7.53567 123.514 -5.5557 0.753567 0.351394 -0.55557
-43.1785 232.271 -5.5557 0.753567 0.351394 -0.55557
8.37319 123.904 -3.82684 0.837319 0.390448 -0.382684
-42.341 232.661 -3.82684 0.837319 0.390448 -0.382684
8.88893 124.145 -1.95091 0.888893 0.414498 -0.195091
-41.8253 232.902 -1.95091 0.888893 0.414498 -0.195091
9.06308 115.774 0 0.906308 -0.422618 0
59.7773 224.531 0 0.906308 -0.422618 0
8.88893 115.855 1.9509 0.888893 -0.414498 0.19509
59.6031 224.612 1.9509 0.888893 -0.414498 0.19509
8.37319 116.096 3.82683 0.837319 -0.390448 0.382683
59.0874 224.852 3.82683 0.837319 -0.390448 0.382683
7.53567 116.486 5.5557 0.753567 -0.351394 0.55557
58.2499 225.243 5.5557 0.753567 -0.351394 0.55557
6.40856 117.012 7.07107 0.640856 -0.298836 0.707107
57.1228 225.769 7.07107 0.640856 -0.298836 0.707107
5.03518 117.652 8.3147 0.503518 -0.234794 0.83147
55.7494 226.409 8.3147 0.503518 -0.234794 0.83147
3.46829 118.383 9.2388 0.346829 -0.161729 0.92388
54.1825 227.14 9.2388 0.346829 -0.161729 0.92388
1.76812 119.176 9.80785 0.176812 -0.0824488 0.980785
52.4823 227.932 9.80785 0.176812 -0.0824488 0.980785
6.84243e-07 120 10 6.84243e-08 -3.19068e-08 1
50.7142 228.757 10 6.84243e-08 -3.19068e-08 1
-1.76812 120.824 9.80785 -0.176812 0.0824487 0.980785
48.9461 229.581 9.80785 -0.176812 0.0824487 0.980785
-3.46829 121.617 9.2388 -0.346829 0.161729 0.92388
47.2459 230.374 9.2388 -0.346829 0.161729 0.92388
-5.03518 122.348 8.3147 -0.503518 0.234794 0.83147
45.679 231.105 8.3147 -0.503518 0.234794 0.83147
-6.40856 122.988 7.07107 -0.640856 0.298836 0.707107
44.3056 231.745 7.07107 -0.640856 0.298836 0.707107
-7.53567 123.514 5.5557 -0.753567 0.351394 0.55557
43.1785 232.271 5.5557 -0.753567 0.351394 0.55557
-8.37319 123.904 3.82683 -0.837319 0.390448 0.382683
42.341 232.661 3.82683 -0.837319 0.390448 0.382683
-8.88893 124.145 1.95091 -0.888893 0.414498 0.195091
41.8253 232.902 1.95091 -0.888893 0.414498 0.195091
-9.06308 124.226 1.50996e-06 -0.906308 0.422618 1.50996e-07
41.6511 232.983 1.50996e-06 -0.906308 0.422618 1.50996e-07
-8.88893 124.145 -1.9509 -0.888893 0.414498 -0.19509
41.8253 232.902 -1.9509 -0.888893 0.414498 -0.19509
-8.37319 123.904 -3.82683 -0.837319 0.390448 -0.382683
42.341 232.661 -3.82683 -0.837319 0.390448 -0.382683
-7.53567 123.514 -5.5557 -0.753567 0.351394 -0.55557
43.1785 232.271 -5.5557 -0.753567 0.351394 -0.55557
-6.40857 122.988 -7.07107 -0.640857 0.298836 -0.707107
44.3056 231.745 -7.07107 -0.640857 0.298836 -0.707107
-5.03518 122.348 -8.31469 -0.503518 0.234794 -0.83147
45.679 231.105 -8.31469 -0.503518 0.234794 -0.83147
-3.46829 121.617 -9.2388 -0.346829 0.161729 -0.92388
47.2459 230.374 -9.2388 -0.346829 0.161729 -0.92388
-1.76812 120.824 -9.80785 -0.176812 0.0824488 -0.980785
48.9461 229.581 -9.80785 -0.176812 0.0824488 -0.980785
1.08076e-07 120 -10 1.08076e-08 -5.03967e-09 -1
50.7142 228.757 -10 1.08076e-08 -5.03967e-09 -1
1.76812 119.176 -9.80785 0.176812 -0.0824486 -0.980785
52.4823 227.932 -9.80785 0.176812 -0.0824486 -0.980785
3.46829 118.383 -9.2388 0.346829 -0.161729 -0.92388
54.1825 227.14 -9.2388 0.346829 -0.161729 -0.92388
5.03517 117.652 -8.3147 0.503517 -0.234794 -0.83147
55.7494 226.409 -8.3147 0.503517 -0.234794 -0.83147
6.40856 117.012 -7.07107 0.640856 -0.298836 -0.707107
57.1228 225.769 -7.07107 0.640856 -0.298836 -0.707107
7.53567 116.486 -5.5557 0.753567 -0.351394 -0.55557
58.2499 225.243 -5.5557 0.753567 -0.351394 -0.55557
8.37319 116.096 -3.82684 0.837319 -0.390448 -0.382684
59.0874 224.852 -3.82684 0.837319 -0.390448 -0.382684
8.88893 115.855 -1.95091 0.888893 -0.414498 -0.195091
59.6031 224.612 -1.95091 0.888893 -0.414498 -0.195091
3 0 2 3
3 3 1 0
3 2 4 5
3 5 3 2
3 4 6 7
3 7 5 4
3 6 8 9
3 9 7 6
3 8 10 11
3 11 9 8
3 10 12 13
3 13 11 10
3 12 14 15
3 15 13 12
3 14 16 17
3 17 15 14
3 16 18 19
3 19 17 16
3 18 20 21
3 21 19 18
3 20 22 23
3 23 21 20
3 22 24 25
3 25 23 22
3 24 26 27
3 27 25 24
3 26 28 29
3 29 27 26
3 28 30 31
3 31 29 28
3 30 32 33
3 33 31 30
3 32 34 35
3 35 33 32
3 34 36 37
3 37 35 34
3 36 38 39
3 39 37 36
3 38 40 41
3 41 39 38
3 40 42 43
3 43 41 40
3 42 44 45
3 45 43 42
3 44 46 47
3 47 45 44
3 46 48 49
3 49 47 46
3 48 50 51
3 51 49 48
3 50 52 53
3 53 51 50
3 52 54 55
3 55 53 52
3 54 56 57
3 57 55 54
3 56 58 59
3 59 57 56
3 58 60 61
3 61 59 58
3 60 62 63
3 63 61 60
3 62 0 1
3 1 63 62
3 64 66 67
3 67 65 64
3 66 68 69
3 69 67 66
3 68 70 71
3 71 69 68
3 70 72 73
3 73 71 70
3 72 74 75
3 75 73 72
3 74 76 77
3 77 75 74
3 76 78 79
3 79 77 76
3 78 80 81
3 81 79 78
3 80 82 83
3 83 81 80
3 82 84 85
3 85 83 82
3 84 86 87
3 87 85 84
3 86 88 89
3 89 87 86
3 88 90 91
3 91 89 88
3 90 92 93
3 93 91 90
3 92 94 95
3 95 93 92
3 94 96 97
3 97 95 94
3 96 98 99
3 99 97 96
3 98 100 101
3 101 99 98
3 100 102 103
3 103 101 100
3 102 104 105
3 105 103 102
3 104 106 107
3 107 105 104
3 106 108 109
3 109 107 106
3 108 110 111
3 111 109 108
3 110 112 113
3 113 111 110
3 112 114 115
3 115 113 112
3 114 116 117
3 117 115 114
3 116 118 119
3 119 117 116
3 118 120 121
3 121 119 118
3 120 122 123
3 123 121 120
3 122 124 125
3 125 123 122
3 124 126 127
3 127 125 124
3 126 64 65
3 65 127 126
3 128 130 131
3 131 129 128
3 130 132 133
3 133 131 130
3 132 134 135
3 135 133 132
3 134 136 137
3 137 135 134
3 136 138 139
3 139 137 136
3 138 140 141
3 141 139 138
3 140 142 143
3 143 141 140
3 142 144 145
3 145 143 142
3 144 146 147
3 147 145 144
3 146 148 149
3 149 147 146
3 148 150 151
3 151 149 148
3 150 152 153
3 153 151 150
3 152 154 155
3 155 153 152
3 154 156 157
3 157 155 154
3 156 158 159
3 159 157 156
3 158 160 161
3 161 159 158
3 160 162 163
3 163 161 160
3 162 164 165
3 165 163 162
3 164 166 167
3 167 165 164
3 166 168 169
3 169 167 166
3 168 170 171
3 171 169 168
3 170 172 173
3 173 171 170
3 172 174 175
3 175 173 172
3 174 176 177
3 177 175 174
3 176 178 179
3 179 177 176
3 178 180 181
3 181 179 178
3 180 182 183
3 183 181 180
3 182 184 185
3 185 183 182
3 184 186 187
3 187 185 184
3 186 188 189
3 189 187 186
3 188 190 191
3 191 189 188
3 190 128 129
3 129 191 190
