<?xml version="1.0" encoding="UTF-8" standalone="no"?>
<!DOCTYPE svg PUBLIC "-//W3C//DTD SVG 20010904//EN"
              "http://www.w3.org/TR/2001/REC-SVG-20010904/DTD/svg10.dtd">

<svg xmlns="http://www.w3.org/2000/svg"
     width="27.7778in" height="27.7778in"
     viewBox="0 0 2000 2000">
  <path id="Unnamed #1"
        fill="none" stroke="black" stroke-width="1"
        d="M 968.75,332.03
           C 894.53,425.78 894.53,441.41 808.59,492.19
             722.66,542.97 722.66,558.59 570.31,597.66
             417.97,636.72 378.91,656.25 402.34,722.66
             425.78,789.06 425.78,816.41 382.81,835.94
             339.84,855.47 308.59,929.69 308.59,964.84
             308.59,1000.00 308.59,1000.00 242.19,1089.84
             175.78,1179.69 70.31,1183.59 105.47,1250.00
             140.62,1316.41 117.19,1351.56 203.12,1359.38
             289.06,1367.19 269.53,1300.78 351.56,1335.94
             433.59,1371.09 429.69,1433.59 410.16,1484.38
             390.62,1535.16 414.06,1527.34 363.28,1589.84
             312.50,1652.34 261.72,1726.56 285.16,1781.25
             308.59,1835.94 480.47,1875.00 558.59,1871.09
             636.72,1867.19 691.41,1886.72 699.22,1859.38
             707.03,1832.03 714.84,1761.72 769.53,1742.19
             824.22,1722.66 863.28,1777.34 929.69,1734.38
             996.09,1691.41 1050.78,1625.00 1058.59,1601.56
             1066.41,1578.12 1058.59,1515.62 1039.06,1457.03
             1019.53,1398.44 1000.00,1277.34 1050.78,1277.34
             1101.56,1277.34 1121.09,1335.94 1226.56,1285.16
             1332.03,1234.38 1332.03,1156.25 1406.25,1148.44
             1480.47,1140.62 1585.94,1093.75 1609.38,1039.06
             1632.81,984.38 1660.16,953.12 1664.06,910.16
             1667.97,867.19 1578.12,796.88 1531.25,777.34
             1484.38,757.81 1390.62,820.31 1343.75,730.47
             1296.88,640.62 1281.25,542.97 1277.34,507.81
             1273.44,472.66 1332.03,347.66 1367.19,312.50
             1402.34,277.34 1406.25,261.72 1351.56,203.12
             1296.88,144.53 1140.62,74.22 1085.94,85.94
             1031.25,97.66 988.28,113.28 988.28,152.34
             988.28,191.41 1001.95,234.38 996.09,251.95
             990.23,269.53 1003.91,273.44 968.75,332.03 Z" />
</svg>
