<?xml version="1.0" encoding="UTF-8" standalone="no"?>
<!DOCTYPE svg PUBLIC "-//W3C//DTD SVG 20010904//EN"
              "http://www.w3.org/TR/2001/REC-SVG-20010904/DTD/svg10.dtd">

<svg xmlns="http://www.w3.org/2000/svg"
     width="27.7778in" height="27.7778in"
     viewBox="0 0 2000 2000">
  <path id="Unnamed"
        fill="none" stroke="black" stroke-width="1"
        d="M 996.00,248.00
           C 996.00,248.00 992.00,282.00 992.00,282.00
             992.00,282.00 980.00,324.00 980.00,324.00
             980.00,324.00 960.00,356.00 960.00,356.00
             960.00,356.00 926.00,390.00 926.00,390.00
             926.00,390.00 882.00,428.00 882.00,428.00
             882.00,428.00 838.00,466.00 838.00,466.00
             838.00,466.00 788.00,500.00 788.00,500.00
             788.00,500.00 746.00,534.00 746.00,534.00
             746.00,534.00 694.00,552.00 694.00,552.00
             694.00,552.00 642.00,568.00 642.00,568.00
             642.00,568.00 608.00,608.00 608.00,608.00
             608.00,608.00 560.00,622.00 558.00,622.00
             556.00,622.00 478.00,622.00 478.00,622.00
             478.00,622.00 410.00,638.00 410.00,640.00
             410.00,642.00 408.00,730.00 408.00,730.00
             408.00,730.00 410.00,796.00 410.00,796.00
             410.00,796.00 390.00,830.00 390.00,830.00
             390.00,830.00 344.00,868.00 344.00,868.00
             344.00,868.00 316.00,914.00 316.00,914.00
             316.00,914.00 294.00,968.00 294.00,968.00
             294.00,968.00 276.00,1018.00 276.00,1018.00
             276.00,1018.00 250.00,1068.00 250.00,1068.00
             250.00,1068.00 216.00,1118.00 216.00,1118.00
             216.00,1118.00 172.00,1150.00 172.00,1150.00
             172.00,1150.00 124.00,1192.00 124.00,1192.00
             124.00,1192.00 94.00,1240.00 94.00,1242.00
             94.00,1244.00 94.00,1286.00 94.00,1286.00
             94.00,1286.00 126.00,1332.00 126.00,1332.00
             126.00,1332.00 178.00,1354.00 178.00,1354.00
             178.00,1354.00 222.00,1362.00 222.00,1362.00
             222.00,1362.00 266.00,1352.00 266.00,1350.00
             266.00,1348.00 294.00,1336.00 296.00,1336.00
             298.00,1336.00 328.00,1318.00 328.00,1318.00
             328.00,1318.00 350.00,1328.00 360.00,1330.00
             370.00,1332.00 398.00,1360.00 400.00,1362.00
             402.00,1364.00 418.00,1410.00 418.00,1410.00
             418.00,1410.00 412.00,1476.00 412.00,1476.00
             412.00,1476.00 400.00,1514.00 400.00,1514.00
             400.00,1514.00 384.00,1554.00 384.00,1554.00
             384.00,1554.00 348.00,1602.00 348.00,1602.00
             348.00,1602.00 314.00,1656.00 314.00,1656.00
             314.00,1656.00 292.00,1706.00 292.00,1706.00
             292.00,1706.00 290.00,1766.00 290.00,1766.00
             290.00,1766.00 296.00,1812.00 296.00,1812.00
             296.00,1812.00 346.00,1834.00 346.00,1834.00
             346.00,1834.00 404.00,1856.00 404.00,1856.00
             404.00,1856.00 468.00,1864.00 468.00,1864.00
             468.00,1864.00 548.00,1868.00 550.00,1868.00
             552.00,1868.00 598.00,1882.00 598.00,1882.00
             598.00,1882.00 660.00,1884.00 660.00,1882.00
             660.00,1880.00 698.00,1842.00 698.00,1842.00
             698.00,1842.00 718.00,1798.00 718.00,1798.00
             718.00,1798.00 732.00,1750.00 732.00,1750.00
             732.00,1750.00 760.00,1732.00 760.00,1732.00
             760.00,1732.00 794.00,1738.00 794.00,1738.00
             794.00,1738.00 840.00,1748.00 840.00,1748.00
             840.00,1748.00 884.00,1746.00 884.00,1746.00
             884.00,1746.00 930.00,1736.00 930.00,1736.00
             930.00,1736.00 970.00,1712.00 970.00,1712.00
             970.00,1712.00 1008.00,1674.00 1008.00,1674.00
             1008.00,1674.00 1034.00,1642.00 1034.00,1642.00
             1034.00,1642.00 1054.00,1602.00 1054.00,1602.00
             1054.00,1602.00 1060.00,1558.00 1060.00,1558.00
             1060.00,1558.00 1050.00,1498.00 1050.00,1498.00
             1050.00,1498.00 1034.00,1456.00 1034.00,1456.00
             1034.00,1456.00 1020.00,1424.00 1020.00,1424.00
             1020.00,1424.00 1018.00,1382.00 1018.00,1382.00
             1018.00,1382.00 1014.00,1334.00 1014.00,1334.00
             1014.00,1334.00 1032.00,1298.00 1032.00,1298.00
             1032.00,1298.00 1062.00,1282.00 1062.00,1282.00
             1062.00,1282.00 1092.00,1292.00 1092.00,1292.00
             1092.00,1292.00 1120.00,1300.00 1120.00,1300.00
             1120.00,1300.00 1162.00,1302.00 1162.00,1302.00
             1162.00,1302.00 1202.00,1300.00 1202.00,1300.00
             1202.00,1300.00 1242.00,1286.00 1242.00,1286.00
             1242.00,1286.00 1276.00,1260.00 1276.00,1260.00
             1276.00,1260.00 1304.00,1230.00 1304.00,1230.00
             1304.00,1230.00 1326.00,1194.00 1326.00,1194.00
             1326.00,1194.00 1356.00,1158.00 1356.00,1158.00
             1356.00,1158.00 1404.00,1142.00 1404.00,1142.00
             1404.00,1142.00 1442.00,1140.00 1442.00,1140.00
             1442.00,1140.00 1486.00,1146.00 1488.00,1146.00
             1490.00,1146.00 1520.00,1126.00 1520.00,1126.00
             1520.00,1126.00 1546.00,1100.00 1546.00,1100.00
             1546.00,1100.00 1584.00,1064.00 1584.00,1064.00
             1584.00,1064.00 1616.00,1032.00 1616.00,1032.00
             1616.00,1032.00 1650.00,1006.00 1650.00,1004.00
             1650.00,1002.00 1680.00,964.00 1680.00,964.00
             1680.00,964.00 1678.00,918.00 1678.00,918.00
             1678.00,918.00 1648.00,870.00 1648.00,870.00
             1648.00,870.00 1608.00,828.00 1608.00,828.00
             1608.00,828.00 1560.00,796.00 1560.00,796.00
             1560.00,796.00 1520.00,780.00 1520.00,780.00
             1520.00,780.00 1470.00,774.00 1470.00,774.00
             1470.00,774.00 1416.00,776.00 1416.00,776.00
             1416.00,776.00 1364.00,784.00 1364.00,784.00
             1364.00,784.00 1314.00,806.00 1314.00,806.00
             1314.00,806.00 1270.00,768.00 1270.00,768.00
             1270.00,768.00 1304.00,716.00 1304.00,716.00
             1304.00,716.00 1320.00,650.00 1320.00,650.00
             1320.00,650.00 1302.00,592.00 1302.00,592.00
             1302.00,592.00 1290.00,542.00 1290.00,542.00
             1290.00,542.00 1282.00,496.00 1282.00,494.00
             1282.00,492.00 1284.00,438.00 1284.00,438.00
             1284.00,438.00 1306.00,386.00 1306.00,386.00
             1306.00,386.00 1336.00,346.00 1336.00,346.00
             1336.00,346.00 1350.00,300.00 1350.00,298.00
             1350.00,296.00 1358.00,252.00 1358.00,252.00
             1358.00,252.00 1336.00,196.00 1336.00,196.00
             1336.00,196.00 1304.00,156.00 1304.00,156.00
             1304.00,156.00 1258.00,124.00 1256.00,124.00
             1254.00,124.00 1208.00,106.00 1208.00,106.00
             1208.00,106.00 1164.00,94.00 1164.00,94.00
             1164.00,94.00 1118.00,88.00 1118.00,88.00
             1118.00,88.00 1072.00,88.00 1072.00,88.00
             1072.00,88.00 1036.00,96.00 1036.00,96.00
             1036.00,96.00 1000.00,110.00 1000.00,110.00
             1000.00,110.00 988.00,154.00 988.00,154.00
             988.00,154.00 986.00,200.00 986.00,200.00
             986.00,200.00 998.00,248.00 998.00,250.00" />
</svg>
