<?xml version="1.0" encoding="UTF-8" standalone="no"?>
<!DOCTYPE svg PUBLIC "-//W3C//DTD SVG 20010904//EN"
              "http://www.w3.org/TR/2001/REC-SVG-20010904/DTD/svg10.dtd">

<svg xmlns="http://www.w3.org/2000/svg"
     width="28.4444in" height="28.4444in"
     viewBox="0 0 2048 2048">
  <path id="Unnamed"
        fill="none" stroke="black" stroke-width="1"
        d="M 1019.90,253.95
           C 1019.90,253.95 1015.81,288.77 1015.81,288.77
             1015.81,288.77 1003.52,331.78 1003.52,331.78
             1003.52,331.78 983.04,364.54 983.04,364.54
             983.04,364.54 948.22,399.36 948.22,399.36
             948.22,399.36 903.17,438.27 903.17,438.27
             903.17,438.27 858.11,477.18 858.11,477.18
             858.11,477.18 806.91,512.00 806.91,512.00
             806.91,512.00 763.90,546.82 763.90,546.82
             763.90,546.82 710.66,565.25 710.66,565.25
             710.66,565.25 657.41,581.63 657.41,581.63
             657.41,581.63 622.59,622.59 622.59,622.59
             622.59,622.59 573.44,636.93 571.39,636.93
             569.34,636.93 489.47,636.93 489.47,636.93
             489.47,636.93 419.84,653.31 419.84,655.36
             419.84,657.41 417.79,747.52 417.79,747.52
             417.79,747.52 419.84,815.10 419.84,815.10
             419.84,815.10 399.36,849.92 399.36,849.92
             399.36,849.92 352.26,888.83 352.26,888.83
             352.26,888.83 323.58,935.94 323.58,935.94
             323.58,935.94 301.06,991.23 301.06,991.23
             301.06,991.23 282.62,1042.43 282.62,1042.43
             282.62,1042.43 256.00,1093.63 256.00,1093.63
             256.00,1093.63 221.18,1144.83 221.18,1144.83
             221.18,1144.83 176.13,1177.60 176.13,1177.60
             176.13,1177.60 126.98,1220.61 126.98,1220.61
             126.98,1220.61 96.26,1269.76 96.26,1271.81
             96.26,1273.86 96.26,1316.86 96.26,1316.86
             96.26,1316.86 129.02,1363.97 129.02,1363.97
             129.02,1363.97 182.27,1386.50 182.27,1386.50
             182.27,1386.50 227.33,1394.69 227.33,1394.69
             227.33,1394.69 272.38,1384.45 272.38,1382.40
             272.38,1380.35 301.06,1368.06 303.10,1368.06
             305.15,1368.06 335.87,1349.63 335.87,1349.63
             335.87,1349.63 358.40,1359.87 368.64,1361.92
             378.88,1363.97 407.55,1392.64 409.60,1394.69
             411.65,1396.74 428.03,1443.84 428.03,1443.84
             428.03,1443.84 421.89,1511.42 421.89,1511.42
             421.89,1511.42 409.60,1550.34 409.60,1550.34
             409.60,1550.34 393.22,1591.30 393.22,1591.30
             393.22,1591.30 356.35,1640.45 356.35,1640.45
             356.35,1640.45 321.54,1695.74 321.54,1695.74
             321.54,1695.74 299.01,1746.94 299.01,1746.94
             299.01,1746.94 296.96,1808.38 296.96,1808.38
             296.96,1808.38 303.10,1855.49 303.10,1855.49
             303.10,1855.49 354.30,1878.02 354.30,1878.02
             354.30,1878.02 413.70,1900.54 413.70,1900.54
             413.70,1900.54 479.23,1908.74 479.23,1908.74
             479.23,1908.74 561.15,1912.83 563.20,1912.83
             565.25,1912.83 612.35,1927.17 612.35,1927.17
             612.35,1927.17 675.84,1929.22 675.84,1927.17
             675.84,1925.12 714.75,1886.21 714.75,1886.21
             714.75,1886.21 735.23,1841.15 735.23,1841.15
             735.23,1841.15 749.57,1792.00 749.57,1792.00
             749.57,1792.00 778.24,1773.57 778.24,1773.57
             778.24,1773.57 813.06,1779.71 813.06,1779.71
             813.06,1779.71 860.16,1789.95 860.16,1789.95
             860.16,1789.95 905.22,1787.90 905.22,1787.90
             905.22,1787.90 952.32,1777.66 952.32,1777.66
             952.32,1777.66 993.28,1753.09 993.28,1753.09
             993.28,1753.09 1032.19,1714.18 1032.19,1714.18
             1032.19,1714.18 1058.82,1681.41 1058.82,1681.41
             1058.82,1681.41 1079.30,1640.45 1079.30,1640.45
             1079.30,1640.45 1085.44,1595.39 1085.44,1595.39
             1085.44,1595.39 1075.20,1533.95 1075.20,1533.95
             1075.20,1533.95 1058.82,1490.94 1058.82,1490.94
             1058.82,1490.94 1044.48,1458.18 1044.48,1458.18
             1044.48,1458.18 1042.43,1415.17 1042.43,1415.17
             1042.43,1415.17 1038.34,1366.02 1038.34,1366.02
             1038.34,1366.02 1056.77,1329.15 1056.77,1329.15
             1056.77,1329.15 1087.49,1312.77 1087.49,1312.77
             1087.49,1312.77 1118.21,1323.01 1118.21,1323.01
             1118.21,1323.01 1146.88,1331.20 1146.88,1331.20
             1146.88,1331.20 1189.89,1333.25 1189.89,1333.25
             1189.89,1333.25 1230.85,1331.20 1230.85,1331.20
             1230.85,1331.20 1271.81,1316.86 1271.81,1316.86
             1271.81,1316.86 1306.62,1290.24 1306.62,1290.24
             1306.62,1290.24 1335.30,1259.52 1335.30,1259.52
             1335.30,1259.52 1357.82,1222.66 1357.82,1222.66
             1357.82,1222.66 1388.54,1185.79 1388.54,1185.79
             1388.54,1185.79 1437.70,1169.41 1437.70,1169.41
             1437.70,1169.41 1476.61,1167.36 1476.61,1167.36
             1476.61,1167.36 1521.66,1173.50 1523.71,1173.50
             1525.76,1173.50 1556.48,1153.02 1556.48,1153.02
             1556.48,1153.02 1583.10,1126.40 1583.10,1126.40
             1583.10,1126.40 1622.02,1089.54 1622.02,1089.54
             1622.02,1089.54 1654.78,1056.77 1654.78,1056.77
             1654.78,1056.77 1689.60,1030.14 1689.60,1028.10
             1689.60,1026.05 1720.32,987.14 1720.32,987.14
             1720.32,987.14 1718.27,940.03 1718.27,940.03
             1718.27,940.03 1687.55,890.88 1687.55,890.88
             1687.55,890.88 1646.59,847.87 1646.59,847.87
             1646.59,847.87 1597.44,815.10 1597.44,815.10
             1597.44,815.10 1556.48,798.72 1556.48,798.72
             1556.48,798.72 1505.28,792.58 1505.28,792.58
             1505.28,792.58 1449.98,794.62 1449.98,794.62
             1449.98,794.62 1396.74,802.82 1396.74,802.82
             1396.74,802.82 1345.54,825.34 1345.54,825.34
             1345.54,825.34 1300.48,786.43 1300.48,786.43
             1300.48,786.43 1335.30,733.18 1335.30,733.18
             1335.30,733.18 1351.68,665.60 1351.68,665.60
             1351.68,665.60 1333.25,606.21 1333.25,606.21
             1333.25,606.21 1320.96,555.01 1320.96,555.01
             1320.96,555.01 1312.77,507.90 1312.77,505.86
             1312.77,503.81 1314.82,448.51 1314.82,448.51
             1314.82,448.51 1337.34,395.26 1337.34,395.26
             1337.34,395.26 1368.06,354.30 1368.06,354.30
             1368.06,354.30 1382.40,307.20 1382.40,305.15
             1382.40,303.10 1390.59,258.05 1390.59,258.05
             1390.59,258.05 1368.06,200.70 1368.06,200.70
             1368.06,200.70 1335.30,159.74 1335.30,159.74
             1335.30,159.74 1288.19,126.98 1286.14,126.98
             1284.10,126.98 1236.99,108.54 1236.99,108.54
             1236.99,108.54 1191.94,96.26 1191.94,96.26
             1191.94,96.26 1144.83,90.11 1144.83,90.11
             1144.83,90.11 1097.73,90.11 1097.73,90.11
             1097.73,90.11 1060.86,98.30 1060.86,98.30
             1060.86,98.30 1024.00,112.64 1024.00,112.64
             1024.00,112.64 1011.71,157.70 1011.71,157.70
             1011.71,157.70 1009.66,204.80 1009.66,204.80
             1009.66,204.80 1021.95,253.95 1021.95,256.00" />
</svg>
